PathFileType	4	(X/Y/Z)	/Users/itak/Documents/Research/Walk-IL/dataset/trc/00057_00006.trc
DataRate	CameraRate	NumFrames	NumMarkers	Units	OrigDataRate	OrigDataStartFrame	OrigNumFrames
100.000000	100.000000	4	53	mm	100.000000	245	491
Frame#	Time	RPSI			LPSI			L3			STRN			T10			C7			CLAV			RBAK			LBAK			LSHO			LUPA			LAEL			LAOL			LWTS			LWPS			LFRA			LIFD			LHPS			LHTS			RSHO			RUPA			RAEL			RAOL			RWTS			RWPS			RFRA			RIFD			RHTS			RHPS			RBHD			LFHD			RFHD			LBHD			LHIP			RHIP			RASI			LASI			LKNE			LTHI			LANK			LTIP			LTOE			LMT1			LMT5			LHEE			RKNE			RTHI			RANK			RTIP			RTOE			RMT1			RMT5			RHEE			
		X1	Y1	Z1	X2	Y2	Z2	X3	Y3	Z3	X4	Y4	Z4	X5	Y5	Z5	X6	Y6	Z6	X7	Y7	Z7	X8	Y8	Z8	X9	Y9	Z9	X10	Y10	Z10	X11	Y11	Z11	X12	Y12	Z12	X13	Y13	Z13	X14	Y14	Z14	X15	Y15	Z15	X16	Y16	Z16	X17	Y17	Z17	X18	Y18	Z18	X19	Y19	Z19	X20	Y20	Z20	X21	Y21	Z21	X22	Y22	Z22	X23	Y23	Z23	X24	Y24	Z24	X25	Y25	Z25	X26	Y26	Z26	X27	Y27	Z27	X28	Y28	Z28	X29	Y29	Z29	X30	Y30	Z30	X31	Y31	Z31	X32	Y32	Z32	X33	Y33	Z33	X34	Y34	Z34	X35	Y35	Z35	X36	Y36	Z36	X37	Y37	Z37	X38	Y38	Z38	X39	Y39	Z39	X40	Y40	Z40	X41	Y41	Z41	X42	Y42	Z42	X43	Y43	Z43	X44	Y44	Z44	X45	Y45	Z45	X46	Y46	Z46	X47	Y47	Z47	X48	Y48	Z48	X49	Y49	Z49	X50	Y50	Z50	X51	Y51	Z51	X52	Y52	Z52	X53	Y53	Z53	

246	2.45	208.4398956298828	1031.580322265625	-155.7340393066406	201.6299743652344	1013.671081542969	-331.5216979980469	216.6200103759766	1087.287109375	-245.9774627685547	496.1815795898438	1252.764282226562	-252.1830749511719	221.0776214599609	1220.705444335938	-245.9481506347656	310.5503234863281	1478.348999023438	-250.2056121826172	480.0128173828125	1370.425903320312	-253.7855377197266	234.6143493652344	1348.39697265625	-171.7903747558594	283.4532775878906	1443.727905273438	-350.947998046875	385.1867065429688	1437.781005859375	-424.7728576660156	354.7643737792969	1315.789916992188	-505.8077087402344	353.8761291503906	1098.67138671875	-528.6399536132812	293.5037231445312	1088.60546875	-442.4747009277344	449.7894592285156	864.1248168945312	-457.9744567871094	386.4380798339844	847.4609985351562	-511.29296875	373.1809387207031	988.4486694335938	-532.4837036132812	468.0088806152344	679.9464721679688	-426.9219665527344	421.1423034667969	767.7682495117188	-503.3136596679688	474.0253601074219	782.481689453125	-457.5645141601562	376.929931640625	1433.455322265625	-77.79780578613281	363.7438354492188	1365.111206054688	-14.43746566772461	325.694091796875	1104.838256835938	30.83281517028809	346.6516723632812	1075.214721679688	-62.92677307128906	489.3234252929688	864.6556396484375	16.73159027099609	417.3662719726562	845.0098876953125	61.68234252929688	340.6758117675781	1024.043701171875	44.94639587402344	505.2808532714844	675.0171508789062	1.007774233818054	518.0708618164062	761.6893920898438	20.37068557739258	457.936767578125	757.2174682617188	67.58818054199219	362.7666931152344	1654.0185546875	-312.2269287109375	525.2996215820312	1666.619262695312	-170.3393859863281	539.599609375	1676.755615234375	-295.6661682128906	356.7424926757812	1635.599487304688	-175.6407012939453	308.7117004394531	944.2510375976562	-418.3530578613281	267.0933532714844	956.81201171875	-75.62221527099609	391.8464965820312	961.467041015625	-93.49102783203125	414.1460266113281	949.6087646484375	-358.782470703125	492.4826049804688	508.5846862792969	-340.3277587890625	427.2172546386719	634.1273803710938	-393.3799743652344	413.0870056152344	45.98691177368164	-378.3298034667969	457.3019714355469	259.3102111816406	-371.9550170898438	616.4282836914062	37.99427032470703	-365.2727661132812	567.0219116210938	35.36006546020508	-312.9424438476562	517.3919677734375	36.76869583129883	-412.559326171875	355.79150390625	42.70734024047852	-306.0162353515625	290.7637634277344	506.2719116210938	-80.07618713378906	327.7582092285156	776.2862548828125	-61.99539184570312	-32.97568893432617	125.8920135498047	-66.54912567138672	215.7274322509766	400.251220703125	-67.28580474853516	139.8587493896484	35.80602645874023	-124.9514999389648	90.12331390380859	58.18246459960938	-157.7120666503906	72.77122497558594	60.81143188476562	-61.28886413574219	-72.31233978271484	159.5584411621094	-118.3801727294922	
247	2.46	198.5084533691406	1030.26806640625	-153.7818756103516	192.3343963623047	1012.705871582031	-329.7464904785156	207.1053619384766	1086.246826171875	-243.6945343017578	487.013427734375	1251.132568359375	-249.3969573974609	211.8494720458984	1219.480834960938	-243.0167999267578	301.7385864257812	1477.035400390625	-247.4531860351562	471.0983276367188	1368.857055664062	-251.2100067138672	225.8604431152344	1347.238647460938	-168.80224609375	274.4784240722656	1442.33349609375	-348.1126403808594	376.0614013671875	1436.09814453125	-422.0869750976562	345.3210144042969	1314.06689453125	-502.8063049316406	344.0063171386719	1097.04541015625	-525.8548583984375	283.9789428710938	1086.966186523438	-439.468505859375	440.9766235351562	862.99072265625	-455.281005859375	377.3320007324219	845.9362182617188	-508.1335754394531	363.5499877929688	986.8583984375	-529.6531982421875	459.8806457519531	678.8668823242188	-423.6011657714844	412.3677062988281	766.381591796875	-500.0857849121094	465.4963684082031	781.423095703125	-454.7629089355469	368.43798828125	1432.29248046875	-75.12106323242188	355.5271606445312	1363.91552734375	-11.66320705413818	318.8831787109375	1103.429931640625	34.10285568237305	339.3456726074219	1073.843139648438	-59.77686309814453	483.9462585449219	864.2867431640625	18.86480140686035	412.4778442382812	844.169189453125	64.3209228515625	334.4378356933594	1022.700134277344	48.13579940795898	501.0506286621094	674.7825927734375	3.021536588668823	513.4183349609375	761.534912109375	22.31852912902832	453.5774841308594	756.6678466796875	69.93210601806641	354.0147094726562	1652.600219726562	-309.8020629882812	516.8043212890625	1665.190673828125	-168.218994140625	530.8975830078125	1675.252319335938	-293.5191040039062	348.2073669433594	1634.232299804688	-173.2304840087891	299.1300354003906	943.5477905273438	-416.4118957519531	256.6249389648438	955.2929077148438	-73.56617736816406	381.5127563476562	959.7996215820312	-90.88662719726562	404.9479675292969	948.7859497070312	-356.0518188476562	486.7250366210938	509.4198303222656	-338.6673889160156	420.9134826660156	634.5031127929688	-391.5619506835938	413.1992492675781	46.02136611938477	-378.2492370605469	454.5686340332031	259.83349609375	-371.4122924804688	616.5336303710938	37.95308685302734	-365.1239318847656	567.1132202148438	35.33829879760742	-312.9099426269531	517.5648803710938	36.61862945556641	-412.6123657226562	355.8507080078125	42.50075912475586	-305.9360046386719	276.2241821289062	505.3363647460938	-78.98355865478516	316.0227966308594	774.9229736328125	-59.80915832519531	-39.14658737182617	117.6999664306641	-65.99580383300781	202.7329559326172	398.1989440917969	-66.25984954833984	137.1987457275391	36.52622222900391	-124.7409439086914	86.51474761962891	55.85012435913086	-157.4934539794922	68.95525360107422	56.79524230957031	-60.92781448364258	-79.77974700927734	150.6599426269531	-117.6469955444336	
248	2.47	188.3975372314453	1028.947143554688	-151.751220703125	182.8577880859375	1011.752380371094	-327.88232421875	197.4425201416016	1085.245483398438	-241.3602447509766	477.7088317871094	1249.429443359375	-246.4910125732422	202.4934692382812	1218.271240234375	-240.0238189697266	292.9024658203125	1475.72509765625	-244.6259155273438	462.1104736328125	1367.216918945312	-248.5353698730469	217.0447387695312	1346.109375	-165.7385406494141	265.4588623046875	1440.92724609375	-345.2002563476562	366.872314453125	1434.336303710938	-419.3300170898438	335.7510681152344	1312.261840820312	-499.712890625	334.0142822265625	1095.353637695312	-523.0272216796875	274.3352966308594	1085.24462890625	-436.4138488769531	432.0835266113281	861.8261108398438	-452.5017700195312	368.1638793945312	844.3572998046875	-504.9039001464844	353.8187255859375	985.2054443359375	-526.76513671875	451.8087463378906	677.7920532226562	-420.1076354980469	403.5501403808594	764.9478149414062	-496.7699890136719	456.9060974121094	780.3548583984375	-451.8596801757812	359.8807373046875	1431.111450195312	-72.3487548828125	347.1981201171875	1362.709716796875	-8.795575141906738	311.8963317871094	1102.004272460938	37.49691772460938	331.8350524902344	1072.455688476562	-56.5019416809082	478.4172058105469	863.9447021484375	21.04998779296875	407.4328308105469	843.3169555664062	66.99236297607422	328.0909729003906	1021.33056640625	51.44760894775391	496.7504272460938	674.6062622070312	5.010761260986328	508.6608276367188	761.4380493164062	24.29086112976074	449.123779296875	756.1240844726562	72.28845977783203	345.20947265625	1651.135375976562	-307.3427429199219	508.2533264160156	1663.76220703125	-166.0791931152344	522.1406860351562	1673.723510742188	-291.3410034179688	339.6183471679688	1632.852905273438	-170.7879638671875	289.2090454101562	942.82666015625	-414.4195251464844	245.8414306640625	953.7720947265625	-71.456787109375	370.9826354980469	958.1151733398438	-88.25012969970703	395.5432434082031	947.8902587890625	-353.2933349609375	480.5470275878906	510.2012939453125	-337.1652526855469	414.3037719726562	634.821533203125	-389.7672729492188	413.373779296875	46.07098770141602	-378.1990661621094	451.6028442382812	260.376953125	-370.9786987304688	616.6830444335938	37.8811149597168	-365.0158996582031	567.2684936523438	35.31770324707031	-312.9329528808594	517.8128662109375	36.41423034667969	-412.7236633300781	356.0092163085938	42.29122924804688	-305.884033203125	262.4854736328125	504.3262329101562	-77.86195373535156	304.3936462402344	773.5243530273438	-57.53752899169922	-44.60826110839844	109.9617233276367	-65.82672119140625	190.6080780029297	396.028564453125	-65.33113098144531	135.37890625	37.11019897460938	-124.582633972168	83.69138336181641	53.89657211303711	-157.3858947753906	65.82440185546875	53.58664321899414	-60.65731811523438	-86.53233337402344	142.0241851806641	-117.3872909545898	
249	2.48	178.1089782714844	1027.685424804688	-149.6626434326172	173.1940612792969	1010.841552734375	-325.9353942871094	187.6410064697266	1084.324340820312	-238.9832000732422	468.2931518554688	1247.688232421875	-243.4792938232422	193.0274047851562	1217.125244140625	-236.9889831542969	284.072265625	1474.458251953125	-241.7351989746094	453.070556640625	1365.536254882812	-245.7740173339844	208.1857604980469	1345.052612304688	-162.6103973388672	256.4191589355469	1439.549682617188	-342.2247009277344	357.6475219726562	1432.530639648438	-416.5179443359375	326.0671081542969	1310.412841796875	-496.5414428710938	323.9047241210938	1093.630615234375	-520.1593017578125	264.5971374511719	1083.475830078125	-433.3015441894531	423.1107177734375	860.6564331054688	-449.6539611816406	358.9264526367188	842.7559814453125	-501.6135559082031	343.9904479980469	983.5219116210938	-523.8226928710938	443.8211059570312	676.7910766601562	-416.5047302246094	394.6828918457031	763.49609375	-493.3879699707031	448.2577209472656	779.303466796875	-448.8823547363281	351.2884826660156	1429.940307617188	-69.49382019042969	338.7823486328125	1361.523681640625	-5.845912933349609	304.7422790527344	1100.587768554688	41.00111389160156	324.1332702636719	1071.078369140625	-53.11639785766602	472.71484375	863.6414794921875	23.28891372680664	402.2104797363281	842.4712524414062	69.69332122802734	321.6070556640625	1019.962646484375	54.86116027832031	492.3528137207031	674.4965209960938	6.987618446350098	503.7714538574219	761.4068603515625	26.2947883605957	444.5512390136719	755.6015625	74.65827178955078	336.3677673339844	1649.646728515625	-304.8569641113281	499.6628112792969	1662.370727539062	-163.9233856201172	513.3426513671875	1672.212158203125	-289.1441040039062	331.0002136230469	1631.481567382812	-168.3146362304688	279.1672668457031	942.1101684570312	-412.3595581054688	234.8466033935547	952.2937622070312	-69.32105255126953	360.2747497558594	956.46435546875	-85.59126281738281	385.9327697753906	946.939208984375	-350.5128173828125	473.8746337890625	510.9299621582031	-335.8839721679688	407.3080444335938	635.0872802734375	-388.0558471679688	413.634033203125	46.14318084716797	-378.2012939453125	448.3921813964844	260.961669921875	-370.6943664550781	616.8927001953125	37.77730178833008	-364.94873046875	567.5072021484375	35.3048210144043	-313.0236206054688	518.1521606445312	36.16093826293945	-412.9003601074219	356.2909851074219	42.08744049072266	-305.8878784179688	249.6533813476562	503.2637329101562	-76.70222473144531	292.9113464355469	772.1395874023438	-55.20943832397461	-49.48347473144531	102.8606567382812	-66.08022308349609	179.4059295654297	393.8133544921875	-64.5130615234375	134.1854553222656	37.53156661987305	-124.4578247070312	81.47152709960938	52.32183837890625	-157.3736114501953	63.19875717163086	51.24213027954102	-60.46501541137695	-92.6385498046875	133.8472442626953	-117.6570739746094	
